Courier Prime Italic.ufo
<glyph name="exclam" format="1">
  <advance width="1228"/>
  <unicode hex="0021"/>
  <outline>
    <contour>
      <point x="697" y="1269" type="line" smooth="yes"/>
      <point x="667" y="1269"/>
      <point x="650" y="1254"/>
      <point x="647" y="1219" type="curve" smooth="yes"/>
      <point x="570" y="512" type="line" smooth="yes"/>
      <point x="567" y="481"/>
      <point x="586" y="464"/>
      <point x="620" y="464" type="curve" smooth="yes"/>
      <point x="655" y="464"/>
      <point x="678" y="481"/>
      <point x="685" y="512" type="curve" smooth="yes"/>
      <point x="859" y="1219" type="line" smooth="yes"/>
      <point x="868" y="1254"/>
      <point x="857" y="1269"/>
      <point x="827" y="1269" type="curve" smooth="yes"/>
    </contour>
    <contour>
      <point x="502" y="270"/>
      <point x="469" y="252"/>
      <point x="461" y="207" type="curve" smooth="yes"/>
      <point x="434" y="53" type="line" smooth="yes"/>
      <point x="426" y="8"/>
      <point x="468" y="-10"/>
      <point x="556" y="-10" type="curve" smooth="yes"/>
      <point x="644" y="-10"/>
      <point x="676" y="8"/>
      <point x="684" y="53" type="curve" smooth="yes"/>
      <point x="711" y="207" type="line" smooth="yes"/>
      <point x="719" y="252"/>
      <point x="678" y="270"/>
      <point x="590" y="270" type="curve" smooth="yes"/>
    </contour>
  </outline>
</glyph>
<glyph name="percent" format="1">
  <advance width="1228"/>
  <unicode hex="0025"/>
  <outline>
    <contour>
      <point x="296" y="1209"/>
      <point x="142" y="1072"/>
      <point x="142" y="898" type="curve" smooth="yes"/>
      <point x="142" y="767"/>
      <point x="241" y="661"/>
      <point x="376" y="661" type="curve" smooth="yes"/>
      <point x="539" y="661"/>
      <point x="694" y="798"/>
      <point x="694" y="972" type="curve" smooth="yes"/>
      <point x="694" y="1102"/>
      <point x="595" y="1209"/>
      <point x="460" y="1209" type="curve" smooth="yes"/>
    </contour>
    <contour>
      <point x="513" y="1079"/>
      <point x="564" y="1027"/>
      <point x="564" y="960" type="curve" smooth="yes"/>
      <point x="564" y="870"/>
      <point x="480" y="791"/>
      <point x="393" y="791" type="curve" smooth="yes"/>
      <point x="322" y="791"/>
      <point x="272" y="843"/>
      <point x="272" y="910" type="curve" smooth="yes"/>
      <point x="272" y="1000"/>
      <point x="356" y="1079"/>
      <point x="443" y="1079" type="curve" smooth="yes"/>
    </contour>
    <contour>
      <point x="99" y="229" type="line" smooth="yes"/>
      <point x="60" y="198"/>
      <point x="57" y="167"/>
      <point x="83" y="134" type="curve" smooth="yes"/>
      <point x="108" y="101"/>
      <point x="139" y="98"/>
      <point x="177" y="129" type="curve" smooth="yes"/>
      <point x="1198" y="959" type="line" smooth="yes"/>
      <point x="1236" y="990"/>
      <point x="1239" y="1021"/>
      <point x="1213" y="1054" type="curve" smooth="yes"/>
      <point x="1187" y="1087"/>
      <point x="1158" y="1090"/>
      <point x="1119" y="1059" type="curve" smooth="yes"/>
    </contour>
    <contour>
      <point x="756" y="526"/>
      <point x="602" y="389"/>
      <point x="602" y="215" type="curve" smooth="yes"/>
      <point x="602" y="84"/>
      <point x="701" y="-22"/>
      <point x="836" y="-22" type="curve" smooth="yes"/>
      <point x="999" y="-22"/>
      <point x="1154" y="115"/>
      <point x="1154" y="289" type="curve" smooth="yes"/>
      <point x="1154" y="419"/>
      <point x="1055" y="526"/>
      <point x="920" y="526" type="curve" smooth="yes"/>
    </contour>
    <contour>
      <point x="973" y="396"/>
      <point x="1024" y="344"/>
      <point x="1024" y="277" type="curve" smooth="yes"/>
      <point x="1024" y="187"/>
      <point x="940" y="108"/>
      <point x="853" y="108" type="curve" smooth="yes"/>
      <point x="782" y="108"/>
      <point x="732" y="160"/>
      <point x="732" y="227" type="curve" smooth="yes"/>
      <point x="732" y="317"/>
      <point x="816" y="396"/>
      <point x="903" y="396" type="curve" smooth="yes"/>
    </contour>
  </outline>
</glyph>
<glyph name="parenleft" format="1">
  <advance width="1228"/>
  <unicode hex="0028"/>
  <outline>
    <contour>
      <point x="556" y="1133"/>
      <point x="293" y="728"/>
      <point x="293" y="302" type="curve" smooth="yes"/>
      <point x="293" y="-33"/>
      <point x="460" y="-281"/>
      <point x="630" y="-397" type="curve" smooth="yes"/>
      <point x="655" y="-414"/>
      <point x="685" y="-399"/>
      <point x="707" y="-375" type="curve" smooth="yes"/>
      <point x="732" y="-348"/>
      <point x="745" y="-309"/>
      <point x="726" y="-295" type="curve" smooth="yes"/>
      <point x="577" y="-184"/>
      <point x="440" y="16"/>
      <point x="440" y="302" type="curve" smooth="yes"/>
      <point x="440" y="683"/>
      <point x="651" y="1007"/>
      <point x="990" y="1183" type="curve" smooth="yes"/>
      <point x="1015" y="1196"/>
      <point x="1015" y="1239"/>
      <point x="1000" y="1274" type="curve" smooth="yes"/>
      <point x="987" y="1306"/>
      <point x="961" y="1330"/>
      <point x="929" y="1315" type="curve" smooth="yes"/>
    </contour>
  </outline>
</glyph>
<glyph name="plus" format="1">
  <advance width="1228"/>
  <unicode hex="002B"/>
  <outline>
    <contour>
      <point x="674" y="1026"/>
      <point x="653" y="1008"/>
      <point x="645" y="963" type="curve" smooth="yes"/>
      <point x="590" y="650" type="line"/>
      <point x="277" y="650" type="line" smooth="yes"/>
      <point x="232" y="650"/>
      <point x="211" y="632"/>
      <point x="202" y="582" type="curve" smooth="yes"/>
      <point x="193" y="532"/>
      <point x="208" y="514"/>
      <point x="253" y="514" type="curve" smooth="yes"/>
      <point x="566" y="514" type="line"/>
      <point x="511" y="201" type="line" smooth="yes"/>
      <point x="503" y="156"/>
      <point x="518" y="138"/>
      <point x="568" y="138" type="curve" smooth="yes"/>
      <point x="618" y="138"/>
      <point x="639" y="156"/>
      <point x="647" y="201" type="curve" smooth="yes"/>
      <point x="702" y="514" type="line"/>
      <point x="1015" y="514" type="line" smooth="yes"/>
      <point x="1060" y="514"/>
      <point x="1081" y="532"/>
      <point x="1090" y="582" type="curve" smooth="yes"/>
      <point x="1099" y="632"/>
      <point x="1084" y="650"/>
      <point x="1039" y="650" type="curve" smooth="yes"/>
      <point x="726" y="650" type="line"/>
      <point x="781" y="963" type="line" smooth="yes"/>
      <point x="789" y="1008"/>
      <point x="774" y="1026"/>
      <point x="724" y="1026" type="curve" smooth="yes"/>
    </contour>
  </outline>
</glyph>
<glyph name="comma" format="1">
  <advance width="1228"/>
  <unicode hex="002C"/>
  <outline>
    <contour>
      <point x="502" y="294" type="line" smooth="yes"/>
      <point x="474" y="294"/>
      <point x="452" y="280"/>
      <point x="443" y="254" type="curve" smooth="yes"/>
      <point x="270" y="-228" type="line" smooth="yes"/>
      <point x="255" y="-270"/>
      <point x="272" y="-294"/>
      <point x="328" y="-294" type="curve" smooth="yes"/>
      <point x="376" y="-294"/>
      <point x="408" y="-281"/>
      <point x="425" y="-253" type="curve" smooth="yes"/>
      <point x="717" y="231" type="line" smooth="yes"/>
      <point x="738" y="266"/>
      <point x="727" y="294"/>
      <point x="694" y="294" type="curve" smooth="yes"/>
    </contour>
  </outline>
</glyph>
<glyph name="one" format="1">
  <advance width="1228"/>
  <unicode hex="0031"/>
  <outline>
    <contour>
      <point x="340" y="961" type="line" smooth="yes"/>
      <point x="307" y="943"/>
      <point x="296" y="915"/>
      <point x="320" y="869" type="curve" smooth="yes"/>
      <point x="344" y="823"/>
      <point x="374" y="816"/>
      <point x="404" y="833" type="curve" smooth="yes"/>
      <point x="719" y="1010" type="line"/>
      <point x="682" y="1038" type="line"/>
      <point x="518" y="108" type="line"/>
      <point x="668" y="108" type="line"/>
      <point x="853" y="1157" type="line" smooth="yes"/>
      <point x="863" y="1211"/>
      <point x="814" y="1224"/>
      <point x="770" y="1200" type="curve" smooth="yes"/>
    </contour>
    <contour>
      <point x="273" y="136" type="line" smooth="yes"/>
      <point x="228" y="136"/>
      <point x="207" y="118"/>
      <point x="198" y="68" type="curve" smooth="yes"/>
      <point x="190" y="18"/>
      <point x="205" y="0"/>
      <point x="250" y="0" type="curve" smooth="yes"/>
      <point x="924" y="0" type="line" smooth="yes"/>
      <point x="969" y="0"/>
      <point x="990" y="18"/>
      <point x="998" y="68" type="curve" smooth="yes"/>
      <point x="1007" y="118"/>
      <point x="992" y="136"/>
      <point x="947" y="136" type="curve" smooth="yes"/>
    </contour>
  </outline>
</glyph>
<glyph name="six" format="1">
  <advance width="1228"/>
  <unicode hex="0036"/>
  <outline>
    <contour>
      <point x="547" y="1185"/>
      <point x="213" y="852"/>
      <point x="213" y="352" type="curve" smooth="yes"/>
      <point x="213" y="155"/>
      <point x="321" y="-22"/>
      <point x="576" y="-22" type="curve" smooth="yes"/>
      <point x="872" y="-22"/>
      <point x="1037" y="202"/>
      <point x="1037" y="413" type="curve" smooth="yes"/>
      <point x="1037" y="604"/>
      <point x="901" y="731"/>
      <point x="707" y="731" type="curve" smooth="yes"/>
      <point x="591" y="731"/>
      <point x="483" y="685"/>
      <point x="397" y="600" type="curve"/>
      <point x="480" y="859"/>
      <point x="691" y="1043"/>
      <point x="1062" y="1062" type="curve"/>
      <point x="1089" y="1063"/>
      <point x="1110" y="1083"/>
      <point x="1110" y="1142" type="curve" smooth="yes"/>
      <point x="1110" y="1197"/>
      <point x="1087" y="1210"/>
      <point x="1057" y="1209" type="curve"/>
    </contour>
    <contour>
      <point x="809" y="583"/>
      <point x="879" y="517"/>
      <point x="879" y="403" type="curve" smooth="yes"/>
      <point x="879" y="274"/>
      <point x="787" y="126"/>
      <point x="582" y="126" type="curve" smooth="yes"/>
      <point x="446" y="126"/>
      <point x="367" y="204"/>
      <point x="367" y="319" type="curve" smooth="yes"/>
      <point x="367" y="486"/>
      <point x="518" y="583"/>
      <point x="679" y="583" type="curve" smooth="yes"/>
    </contour>
  </outline>
</glyph>
<glyph name="greater" format="1">
  <advance width="1228"/>
  <unicode hex="003E"/>
  <outline>
    <contour>
      <point x="353" y="1053"/>
      <point x="322" y="1044"/>
      <point x="292" y="1000" type="curve" smooth="yes"/>
      <point x="261" y="954"/>
      <point x="266" y="925"/>
      <point x="304" y="905" type="curve" smooth="yes"/>
      <point x="906" y="590" type="line"/>
      <point x="184" y="272" type="line" smooth="yes"/>
      <point x="138" y="252"/>
      <point x="128" y="219"/>
      <point x="143" y="173" type="curve" smooth="yes"/>
      <point x="157" y="129"/>
      <point x="187" y="113"/>
      <point x="231" y="133" type="curve" smooth="yes"/>
      <point x="1076" y="514" type="line" smooth="yes"/>
      <point x="1110" y="530"/>
      <point x="1129" y="548"/>
      <point x="1135" y="583" type="curve" smooth="yes"/>
      <point x="1141" y="618"/>
      <point x="1129" y="636"/>
      <point x="1100" y="652" type="curve" smooth="yes"/>
      <point x="390" y="1033" type="line" smooth="yes"/>
    </contour>
  </outline>
</glyph>
<glyph name="question" format="1">
  <advance width="1228"/>
  <unicode hex="003F"/>
  <outline>
    <contour>
      <point x="632" y="1209"/>
      <point x="518" y="1181"/>
      <point x="407" y="1123" type="curve" smooth="yes"/>
      <point x="387" y="1112"/>
      <point x="377" y="1095"/>
      <point x="372" y="1067" type="curve" smooth="yes"/>
      <point x="348" y="935" type="line" smooth="yes"/>
      <point x="340" y="889"/>
      <point x="356" y="870"/>
      <point x="412" y="870" type="curve" smooth="yes"/>
      <point x="468" y="870"/>
      <point x="490" y="889"/>
      <point x="498" y="935" type="curve" smooth="yes"/>
      <point x="513" y="1019" type="line"/>
      <point x="580" y="1046"/>
      <point x="655" y="1061"/>
      <point x="736" y="1061" type="curve" smooth="yes"/>
      <point x="846" y="1061"/>
      <point x="902" y="1009"/>
      <point x="902" y="930" type="curve" smooth="yes"/>
      <point x="902" y="891"/>
      <point x="891" y="850"/>
      <point x="869" y="820" type="curve" smooth="yes"/>
      <point x="831" y="766"/>
      <point x="759" y="728"/>
      <point x="644" y="684" type="curve" smooth="yes"/>
      <point x="570" y="656" type="line" smooth="yes"/>
      <point x="546" y="647"/>
      <point x="534" y="631"/>
      <point x="531" y="605" type="curve" smooth="yes"/>
      <point x="507" y="410" type="line" smooth="yes"/>
      <point x="503" y="379"/>
      <point x="525" y="359"/>
      <point x="567" y="359" type="curve" smooth="yes"/>
      <point x="609" y="359"/>
      <point x="637" y="379"/>
      <point x="645" y="410" type="curve" smooth="yes"/>
      <point x="679" y="546" type="line"/>
      <point x="848" y="611"/>
      <point x="961" y="671"/>
      <point x="1018" y="777" type="curve" smooth="yes"/>
      <point x="1046" y="830"/>
      <point x="1061" y="890"/>
      <point x="1061" y="947" type="curve" smooth="yes"/>
      <point x="1061" y="1100"/>
      <point x="950" y="1209"/>
      <point x="751" y="1209" type="curve" smooth="yes"/>
    </contour>
    <contour>
      <point x="474" y="254"/>
      <point x="395" y="184"/>
      <point x="395" y="97" type="curve" smooth="yes"/>
      <point x="395" y="31"/>
      <point x="444" y="-22"/>
      <point x="514" y="-22" type="curve" smooth="yes"/>
      <point x="595" y="-22"/>
      <point x="674" y="48"/>
      <point x="674" y="134" type="curve" smooth="yes"/>
      <point x="674" y="201"/>
      <point x="625" y="254"/>
      <point x="555" y="254" type="curve" smooth="yes"/>
    </contour>
  </outline>
</glyph>
<glyph name="E" format="1">
  <advance width="1228"/>
  <unicode hex="0045"/>
  <outline>
    <contour>
      <point x="282" y="1187" type="line" smooth="yes"/>
      <point x="237" y="1187"/>
      <point x="216" y="1169"/>
      <point x="207" y="1119" type="curve" smooth="yes"/>
      <point x="198" y="1069"/>
      <point x="213" y="1051"/>
      <point x="258" y="1051" type="curve" smooth="yes"/>
      <point x="360" y="1051" type="line"/>
      <point x="198" y="136" type="line"/>
      <point x="96" y="136" type="line" smooth="yes"/>
      <point x="51" y="136"/>
      <point x="30" y="118"/>
      <point x="21" y="68" type="curve" smooth="yes"/>
      <point x="13" y="18"/>
      <point x="28" y="0"/>
      <point x="73" y="0" type="curve" smooth="yes"/>
      <point x="967" y="0" type="line" smooth="yes"/>
      <point x="1012" y="0"/>
      <point x="1033" y="18"/>
      <point x="1041" y="68" type="curve" smooth="yes"/>
      <point x="1094" y="365" type="line" smooth="yes"/>
      <point x="1102" y="411"/>
      <point x="1086" y="430"/>
      <point x="1030" y="430" type="curve" smooth="yes"/>
      <point x="974" y="430"/>
      <point x="952" y="411"/>
      <point x="944" y="365" type="curve" smooth="yes"/>
      <point x="903" y="136" type="line"/>
      <point x="348" y="136" type="line"/>
      <point x="420" y="544" type="line"/>
      <point x="670" y="544" type="line"/>
      <point x="654" y="453" type="line" smooth="yes"/>
      <point x="646" y="407"/>
      <point x="662" y="388"/>
      <point x="718" y="388" type="curve" smooth="yes"/>
      <point x="774" y="388"/>
      <point x="796" y="407"/>
      <point x="804" y="453" type="curve" smooth="yes"/>
      <point x="860" y="771" type="line" smooth="yes"/>
      <point x="869" y="817"/>
      <point x="853" y="836"/>
      <point x="797" y="836" type="curve" smooth="yes"/>
      <point x="741" y="836"/>
      <point x="719" y="817"/>
      <point x="710" y="771" type="curve" smooth="yes"/>
      <point x="694" y="680" type="line"/>
      <point x="444" y="680" type="line"/>
      <point x="510" y="1051" type="line"/>
      <point x="1045" y="1051" type="line"/>
      <point x="1012" y="865" type="line" smooth="yes"/>
      <point x="1004" y="819"/>
      <point x="1020" y="800"/>
      <point x="1076" y="800" type="curve" smooth="yes"/>
      <point x="1132" y="800"/>
      <point x="1154" y="819"/>
      <point x="1162" y="865" type="curve" smooth="yes"/>
      <point x="1207" y="1119" type="line" smooth="yes"/>
      <point x="1216" y="1169"/>
      <point x="1201" y="1187"/>
      <point x="1156" y="1187" type="curve" smooth="yes"/>
    </contour>
  </outline>
</glyph>
<glyph name="G" format="1">
  <advance width="1228"/>
  <unicode hex="0047"/>
  <outline>
    <contour>
      <point x="1074" y="1209"/>
      <point x="1051" y="1190"/>
      <point x="1043" y="1144" type="curve" smooth="yes"/>
      <point x="1034" y="1090" type="line"/>
      <point x="982" y="1162"/>
      <point x="893" y="1209"/>
      <point x="762" y="1209" type="curve" smooth="yes"/>
      <point x="378" y="1209"/>
      <point x="121" y="845"/>
      <point x="121" y="460" type="curve" smooth="yes"/>
      <point x="121" y="169"/>
      <point x="293" y="-22"/>
      <point x="565" y="-22" type="curve" smooth="yes"/>
      <point x="716" y="-22"/>
      <point x="857" y="6"/>
      <point x="978" y="65" type="curve" smooth="yes"/>
      <point x="1003" y="77"/>
      <point x="1020" y="102"/>
      <point x="1026" y="134" type="curve" smooth="yes"/>
      <point x="1075" y="410" type="line"/>
      <point x="1107" y="410" type="line" smooth="yes"/>
      <point x="1152" y="410"/>
      <point x="1173" y="428"/>
      <point x="1182" y="478" type="curve" smooth="yes"/>
      <point x="1191" y="528"/>
      <point x="1176" y="546"/>
      <point x="1131" y="546" type="curve" smooth="yes"/>
      <point x="702" y="546" type="line" smooth="yes"/>
      <point x="657" y="546"/>
      <point x="636" y="528"/>
      <point x="627" y="478" type="curve" smooth="yes"/>
      <point x="618" y="428"/>
      <point x="633" y="410"/>
      <point x="678" y="410" type="curve" smooth="yes"/>
      <point x="925" y="410" type="line"/>
      <point x="885" y="183" type="line"/>
      <point x="791" y="143"/>
      <point x="689" y="126"/>
      <point x="576" y="126" type="curve" smooth="yes"/>
      <point x="389" y="126"/>
      <point x="278" y="253"/>
      <point x="278" y="465" type="curve" smooth="yes"/>
      <point x="278" y="744"/>
      <point x="446" y="1061"/>
      <point x="751" y="1061" type="curve" smooth="yes"/>
      <point x="930" y="1061"/>
      <point x="1013" y="974"/>
      <point x="992" y="854" type="curve" smooth="yes"/>
      <point x="984" y="808"/>
      <point x="1000" y="789"/>
      <point x="1056" y="789" type="curve" smooth="yes"/>
      <point x="1112" y="789"/>
      <point x="1134" y="808"/>
      <point x="1142" y="854" type="curve" smooth="yes"/>
      <point x="1193" y="1144" type="line" smooth="yes"/>
      <point x="1201" y="1190"/>
      <point x="1186" y="1209"/>
      <point x="1130" y="1209" type="curve" smooth="yes"/>
    </contour>
  </outline>
</glyph>
<glyph name="R" format="1">
  <advance width="1228"/>
  <unicode hex="0052"/>
  <outline>
    <contour>
      <point x="282" y="1187" type="line" smooth="yes"/>
      <point x="237" y="1187"/>
      <point x="216" y="1169"/>
      <point x="207" y="1119" type="curve" smooth="yes"/>
      <point x="198" y="1069"/>
      <point x="213" y="1051"/>
      <point x="258" y="1051" type="curve" smooth="yes"/>
      <point x="380" y="1051" type="line"/>
      <point x="218" y="136" type="line"/>
      <point x="96" y="136" type="line" smooth="yes"/>
      <point x="51" y="136"/>
      <point x="30" y="118"/>
      <point x="21" y="68" type="curve" smooth="yes"/>
      <point x="13" y="18"/>
      <point x="28" y="0"/>
      <point x="73" y="0" type="curve" smooth="yes"/>
      <point x="475" y="0" type="line" smooth="yes"/>
      <point x="520" y="0"/>
      <point x="541" y="18"/>
      <point x="549" y="68" type="curve" smooth="yes"/>
      <point x="558" y="118"/>
      <point x="543" y="136"/>
      <point x="498" y="136" type="curve" smooth="yes"/>
      <point x="368" y="136" type="line"/>
      <point x="435" y="515" type="line"/>
      <point x="572" y="515" type="line" smooth="yes"/>
      <point x="653" y="515"/>
      <point x="703" y="486"/>
      <point x="733" y="430" type="curve" smooth="yes"/>
      <point x="779" y="345"/>
      <point x="793" y="255"/>
      <point x="832" y="139" type="curve" smooth="yes"/>
      <point x="866" y="37"/>
      <point x="910" y="0"/>
      <point x="989" y="0" type="curve" smooth="yes"/>
      <point x="1051" y="0" type="line" smooth="yes"/>
      <point x="1096" y="0"/>
      <point x="1117" y="18"/>
      <point x="1126" y="68" type="curve" smooth="yes"/>
      <point x="1135" y="118"/>
      <point x="1120" y="136"/>
      <point x="1075" y="136" type="curve" smooth="yes"/>
      <point x="1047" y="136" type="line" smooth="yes"/>
      <point x="1009" y="136"/>
      <point x="987" y="164"/>
      <point x="970" y="208" type="curve" smooth="yes"/>
      <point x="938" y="292"/>
      <point x="926" y="382"/>
      <point x="874" y="473" type="curve" smooth="yes"/>
      <point x="855" y="506"/>
      <point x="829" y="533"/>
      <point x="796" y="549" type="curve"/>
      <point x="986" y="587"/>
      <point x="1129" y="709"/>
      <point x="1129" y="906" type="curve" smooth="yes"/>
      <point x="1129" y="1072"/>
      <point x="1004" y="1187"/>
      <point x="778" y="1187" type="curve" smooth="yes"/>
    </contour>
    <contour>
      <point x="890" y="1051"/>
      <point x="971" y="994"/>
      <point x="971" y="891" type="curve" smooth="yes"/>
      <point x="971" y="841"/>
      <point x="958" y="786"/>
      <point x="918" y="740" type="curve" smooth="yes"/>
      <point x="874" y="689"/>
      <point x="795" y="651"/>
      <point x="662" y="651" type="curve" smooth="yes"/>
      <point x="459" y="651" type="line"/>
      <point x="530" y="1051" type="line"/>
      <point x="743" y="1051" type="line" smooth="yes"/>
    </contour>
  </outline>
</glyph>
<glyph name="X" format="1">
  <advance width="1228"/>
  <unicode hex="0058"/>
  <outline>
    <contour>
      <point x="961" y="1063" type="line"/>
      <point x="658" y="718" type="line"/>
      <point x="635" y="707" type="line"/>
      <point x="109" y="124" type="line"/>
      <point x="302" y="124" type="line"/>
      <point x="672" y="539" type="line"/>
      <point x="689" y="542" type="line"/>
      <point x="1154" y="1063" type="line"/>
    </contour>
    <contour>
      <point x="66" y="136" type="line" smooth="yes"/>
      <point x="21" y="136"/>
      <point x="0" y="118"/>
      <point x="-9" y="68" type="curve" smooth="yes"/>
      <point x="-17" y="18"/>
      <point x="-2" y="0"/>
      <point x="43" y="0" type="curve" smooth="yes"/>
      <point x="377" y="0" type="line" smooth="yes"/>
      <point x="422" y="0"/>
      <point x="443" y="18"/>
      <point x="451" y="68" type="curve" smooth="yes"/>
      <point x="460" y="118"/>
      <point x="445" y="136"/>
      <point x="400" y="136" type="curve" smooth="yes"/>
    </contour>
    <contour>
      <point x="724" y="136" type="line" smooth="yes"/>
      <point x="679" y="136"/>
      <point x="658" y="118"/>
      <point x="649" y="68" type="curve" smooth="yes"/>
      <point x="641" y="18"/>
      <point x="656" y="0"/>
      <point x="701" y="0" type="curve" smooth="yes"/>
      <point x="1045" y="0" type="line" smooth="yes"/>
      <point x="1090" y="0"/>
      <point x="1111" y="18"/>
      <point x="1119" y="68" type="curve" smooth="yes"/>
      <point x="1128" y="118"/>
      <point x="1113" y="136"/>
      <point x="1068" y="136" type="curve" smooth="yes"/>
    </contour>
    <contour>
      <point x="327" y="1065" type="line"/>
      <point x="599" y="562" type="line"/>
      <point x="626" y="528" type="line"/>
      <point x="836" y="122" type="line"/>
      <point x="1010" y="122" type="line"/>
      <point x="720" y="661" type="line"/>
      <point x="703" y="674" type="line"/>
      <point x="500" y="1065" type="line"/>
    </contour>
    <contour>
      <point x="282" y="1187" type="line" smooth="yes"/>
      <point x="237" y="1187"/>
      <point x="216" y="1169"/>
      <point x="207" y="1119" type="curve" smooth="yes"/>
      <point x="198" y="1069"/>
      <point x="213" y="1051"/>
      <point x="258" y="1051" type="curve" smooth="yes"/>
      <point x="592" y="1051" type="line" smooth="yes"/>
      <point x="637" y="1051"/>
      <point x="658" y="1069"/>
      <point x="667" y="1119" type="curve" smooth="yes"/>
      <point x="676" y="1169"/>
      <point x="661" y="1187"/>
      <point x="616" y="1187" type="curve" smooth="yes"/>
    </contour>
    <contour>
      <point x="910" y="1187" type="line" smooth="yes"/>
      <point x="865" y="1187"/>
      <point x="844" y="1169"/>
      <point x="835" y="1119" type="curve" smooth="yes"/>
      <point x="826" y="1069"/>
      <point x="841" y="1051"/>
      <point x="886" y="1051" type="curve" smooth="yes"/>
      <point x="1200" y="1051" type="line" smooth="yes"/>
      <point x="1245" y="1051"/>
      <point x="1266" y="1069"/>
      <point x="1275" y="1119" type="curve" smooth="yes"/>
      <point x="1284" y="1169"/>
      <point x="1269" y="1187"/>
      <point x="1224" y="1187" type="curve" smooth="yes"/>
    </contour>
  </outline>
</glyph>
<glyph name="bracketleft" format="1">
  <advance width="1228"/>
  <unicode hex="005B"/>
  <outline>
    <contour>
      <point x="565" y="1372" type="line" smooth="yes"/>
      <point x="520" y="1372"/>
      <point x="499" y="1354"/>
      <point x="490" y="1304" type="curve" smooth="yes"/>
      <point x="213" y="-265" type="line" smooth="yes"/>
      <point x="204" y="-315"/>
      <point x="219" y="-333"/>
      <point x="264" y="-333" type="curve" smooth="yes"/>
      <point x="678" y="-333" type="line" smooth="yes"/>
      <point x="723" y="-333"/>
      <point x="745" y="-313"/>
      <point x="754" y="-261" type="curve" smooth="yes"/>
      <point x="763" y="-209"/>
      <point x="749" y="-189"/>
      <point x="704" y="-189" type="curve" smooth="yes"/>
      <point x="377" y="-189" type="line"/>
      <point x="626" y="1228" type="line"/>
      <point x="953" y="1228" type="line" smooth="yes"/>
      <point x="998" y="1228"/>
      <point x="1020" y="1248"/>
      <point x="1029" y="1300" type="curve" smooth="yes"/>
      <point x="1038" y="1352"/>
      <point x="1024" y="1372"/>
      <point x="979" y="1372" type="curve" smooth="yes"/>
    </contour>
  </outline>
</glyph>
<glyph name="backslash" format="1">
  <advance width="1228"/>
  <unicode hex="005C"/>
  <outline>
    <contour>
      <point x="411" y="1394"/>
      <point x="362" y="1369"/>
      <point x="371" y="1330" type="curve" smooth="yes"/>
      <point x="749" y="-323" type="line" smooth="yes"/>
      <point x="754" y="-344"/>
      <point x="779" y="-355"/>
      <point x="814" y="-355" type="curve" smooth="yes"/>
      <point x="858" y="-355"/>
      <point x="908" y="-330"/>
      <point x="899" y="-291" type="curve" smooth="yes"/>
      <point x="521" y="1362" type="line" smooth="yes"/>
      <point x="516" y="1383"/>
      <point x="490" y="1394"/>
      <point x="455" y="1394" type="curve" smooth="yes"/>
    </contour>
  </outline>
</glyph>
<glyph name="a" format="1">
  <advance width="1228"/>
  <unicode hex="0061"/>
  <outline>
    <contour>
      <point x="305" y="946"/>
      <point x="141" y="625"/>
      <point x="141" y="366" type="curve" smooth="yes"/>
      <point x="141" y="127"/>
      <point x="293" y="-22"/>
      <point x="502" y="-22" type="curve" smooth="yes"/>
      <point x="653" y="-22"/>
      <point x="770" y="50"/>
      <point x="864" y="184" type="curve"/>
      <point x="859" y="196" type="line"/>
      <point x="859" y="69"/>
      <point x="933" y="0"/>
      <point x="1042" y="0" type="curve" smooth="yes"/>
      <point x="1053" y="0" type="line" smooth="yes"/>
      <point x="1098" y="0"/>
      <point x="1119" y="20"/>
      <point x="1129" y="72" type="curve" smooth="yes"/>
      <point x="1138" y="124"/>
      <point x="1123" y="144"/>
      <point x="1078" y="144" type="curve" smooth="yes"/>
      <point x="1073" y="144" type="line" smooth="yes"/>
      <point x="1012" y="144"/>
      <point x="975" y="188"/>
      <point x="991" y="279" type="curve" smooth="yes"/>
      <point x="1095" y="869" type="line" smooth="yes"/>
      <point x="1103" y="915"/>
      <point x="1088" y="934"/>
      <point x="1035" y="934" type="curve" smooth="yes"/>
      <point x="1033" y="934" type="line" smooth="yes"/>
      <point x="980" y="934"/>
      <point x="963" y="915"/>
      <point x="955" y="869" type="curve" smooth="yes"/>
      <point x="936" y="766" type="line"/>
      <point x="877" y="874"/>
      <point x="779" y="946"/>
      <point x="651" y="946" type="curve" smooth="yes"/>
    </contour>
    <contour>
      <point x="787" y="798"/>
      <point x="880" y="705"/>
      <point x="880" y="541" type="curve" smooth="yes"/>
      <point x="880" y="339"/>
      <point x="731" y="126"/>
      <point x="524" y="126" type="curve" smooth="yes"/>
      <point x="378" y="126"/>
      <point x="298" y="226"/>
      <point x="298" y="375" type="curve" smooth="yes"/>
      <point x="298" y="581"/>
      <point x="426" y="798"/>
      <point x="645" y="798" type="curve" smooth="yes"/>
    </contour>
  </outline>
</glyph>
<glyph name="g" format="1">
  <advance width="1228"/>
  <unicode hex="0067"/>
  <outline>
    <contour>
      <point x="343" y="946"/>
      <point x="152" y="685"/>
      <point x="152" y="400" type="curve" smooth="yes"/>
      <point x="152" y="172"/>
      <point x="302" y="28"/>
      <point x="518" y="28" type="curve" smooth="yes"/>
      <point x="647" y="28"/>
      <point x="754" y="78"/>
      <point x="851" y="174" type="curve"/>
      <point x="818" y="-17" type="line" smooth="yes"/>
      <point x="793" y="-164"/>
      <point x="685" y="-262"/>
      <point x="501" y="-262" type="curve" smooth="yes"/>
      <point x="392" y="-262"/>
      <point x="271" y="-240"/>
      <point x="172" y="-196" type="curve" smooth="yes"/>
      <point x="140" y="-182"/>
      <point x="110" y="-194"/>
      <point x="90" y="-246" type="curve" smooth="yes"/>
      <point x="70" y="-297"/>
      <point x="83" y="-326"/>
      <point x="117" y="-340" type="curve" smooth="yes"/>
      <point x="227" y="-386"/>
      <point x="354" y="-410"/>
      <point x="485" y="-410" type="curve" smooth="yes"/>
      <point x="753" y="-410"/>
      <point x="921" y="-279"/>
      <point x="963" y="-40" type="curve" smooth="yes"/>
      <point x="1124" y="869" type="line" smooth="yes"/>
      <point x="1132" y="915"/>
      <point x="1121" y="934"/>
      <point x="1065" y="934" type="curve" smooth="yes"/>
      <point x="1009" y="934"/>
      <point x="992" y="915"/>
      <point x="984" y="869" type="curve" smooth="yes"/>
      <point x="965" y="766" type="line"/>
      <point x="905" y="877"/>
      <point x="806" y="946"/>
      <point x="670" y="946" type="curve" smooth="yes"/>
    </contour>
    <contour>
      <point x="809" y="798"/>
      <point x="913" y="710"/>
      <point x="913" y="556" type="curve" smooth="yes"/>
      <point x="913" y="383"/>
      <point x="794" y="176"/>
      <point x="545" y="176" type="curve" smooth="yes"/>
      <point x="390" y="176"/>
      <point x="309" y="271"/>
      <point x="309" y="412" type="curve" smooth="yes"/>
      <point x="309" y="602"/>
      <point x="430" y="798"/>
      <point x="654" y="798" type="curve" smooth="yes"/>
    </contour>
  </outline>
</glyph>
<glyph name="h" format="1">
  <advance width="1228"/>
  <unicode hex="0068"/>
  <outline>
    <contour>
      <point x="301" y="1312" type="line" smooth="yes"/>
      <point x="256" y="1312"/>
      <point x="235" y="1294"/>
      <point x="226" y="1244" type="curve" smooth="yes"/>
      <point x="217" y="1194"/>
      <point x="232" y="1176"/>
      <point x="277" y="1176" type="curve" smooth="yes"/>
      <point x="369" y="1176" type="line"/>
      <point x="171" y="55" type="line" smooth="yes"/>
      <point x="163" y="9"/>
      <point x="178" y="-10"/>
      <point x="234" y="-10" type="curve" smooth="yes"/>
      <point x="236" y="-10" type="line" smooth="yes"/>
      <point x="289" y="-10"/>
      <point x="313" y="9"/>
      <point x="321" y="55" type="curve" smooth="yes"/>
      <point x="382" y="402" type="line" smooth="yes"/>
      <point x="420" y="620"/>
      <point x="601" y="798"/>
      <point x="772" y="798" type="curve" smooth="yes"/>
      <point x="863" y="798"/>
      <point x="905" y="743"/>
      <point x="905" y="658" type="curve" smooth="yes"/>
      <point x="905" y="641"/>
      <point x="903" y="624"/>
      <point x="900" y="605" type="curve" smooth="yes"/>
      <point x="805" y="68" type="line" smooth="yes"/>
      <point x="796" y="18"/>
      <point x="812" y="0"/>
      <point x="857" y="0" type="curve" smooth="yes"/>
      <point x="1026" y="0" type="line" smooth="yes"/>
      <point x="1071" y="0"/>
      <point x="1092" y="18"/>
      <point x="1100" y="68" type="curve" smooth="yes"/>
      <point x="1109" y="118"/>
      <point x="1094" y="136"/>
      <point x="1049" y="136" type="curve" smooth="yes"/>
      <point x="967" y="136" type="line"/>
      <point x="1051" y="610" type="line" smooth="yes"/>
      <point x="1056" y="637"/>
      <point x="1058" y="663"/>
      <point x="1058" y="687" type="curve" smooth="yes"/>
      <point x="1058" y="844"/>
      <point x="962" y="946"/>
      <point x="803" y="946" type="curve" smooth="yes"/>
      <point x="677" y="946"/>
      <point x="553" y="877"/>
      <point x="444" y="750" type="curve"/>
      <point x="531" y="1244" type="line" smooth="yes"/>
      <point x="540" y="1294"/>
      <point x="525" y="1312"/>
      <point x="480" y="1312" type="curve" smooth="yes"/>
    </contour>
  </outline>
</glyph>
<glyph name="l" format="1">
  <advance width="1228"/>
  <unicode hex="006C"/>
  <outline>
    <contour>
      <point x="351" y="1312" type="line" smooth="yes"/>
      <point x="306" y="1312"/>
      <point x="285" y="1294"/>
      <point x="276" y="1244" type="curve" smooth="yes"/>
      <point x="267" y="1194"/>
      <point x="282" y="1176"/>
      <point x="327" y="1176" type="curve" smooth="yes"/>
      <point x="600" y="1176" type="line"/>
      <point x="447" y="307" type="line" smooth="yes"/>
      <point x="442" y="280"/>
      <point x="440" y="253"/>
      <point x="440" y="229" type="curve" smooth="yes"/>
      <point x="440" y="73"/>
      <point x="536" y="-22"/>
      <point x="709" y="-22" type="curve" smooth="yes"/>
      <point x="806" y="-22"/>
      <point x="907" y="7"/>
      <point x="1009" y="65" type="curve" smooth="yes"/>
      <point x="1046" y="86"/>
      <point x="1057" y="113"/>
      <point x="1039" y="161" type="curve" smooth="yes"/>
      <point x="1021" y="208"/>
      <point x="989" y="220"/>
      <point x="956" y="200" type="curve" smooth="yes"/>
      <point x="874" y="149"/>
      <point x="801" y="124"/>
      <point x="724" y="124" type="curve" smooth="yes"/>
      <point x="632" y="124"/>
      <point x="590" y="160"/>
      <point x="590" y="243" type="curve" smooth="yes"/>
      <point x="590" y="263"/>
      <point x="593" y="285"/>
      <point x="597" y="310" type="curve" smooth="yes"/>
      <point x="762" y="1244" type="line" smooth="yes"/>
      <point x="771" y="1294"/>
      <point x="756" y="1312"/>
      <point x="711" y="1312" type="curve" smooth="yes"/>
    </contour>
  </outline>
</glyph>
<glyph name="n" format="1">
  <advance width="1228"/>
  <unicode hex="006E"/>
  <outline>
    <contour>
      <point x="682" y="946"/>
      <point x="553" y="872"/>
      <point x="441" y="736" type="curve"/>
      <point x="462" y="856" type="line" smooth="yes"/>
      <point x="471" y="906"/>
      <point x="456" y="924"/>
      <point x="411" y="924" type="curve" smooth="yes"/>
      <point x="232" y="924" type="line" smooth="yes"/>
      <point x="187" y="924"/>
      <point x="166" y="906"/>
      <point x="157" y="856" type="curve" smooth="yes"/>
      <point x="149" y="806"/>
      <point x="163" y="788"/>
      <point x="208" y="788" type="curve" smooth="yes"/>
      <point x="310" y="788" type="line"/>
      <point x="181" y="55" type="line" smooth="yes"/>
      <point x="173" y="9"/>
      <point x="188" y="-10"/>
      <point x="244" y="-10" type="curve" smooth="yes"/>
      <point x="246" y="-10" type="line" smooth="yes"/>
      <point x="299" y="-10"/>
      <point x="323" y="9"/>
      <point x="331" y="55" type="curve" smooth="yes"/>
      <point x="392" y="402" type="line" smooth="yes"/>
      <point x="430" y="620"/>
      <point x="611" y="798"/>
      <point x="782" y="798" type="curve" smooth="yes"/>
      <point x="873" y="798"/>
      <point x="915" y="744"/>
      <point x="915" y="659" type="curve" smooth="yes"/>
      <point x="915" y="642"/>
      <point x="913" y="624"/>
      <point x="910" y="605" type="curve" smooth="yes"/>
      <point x="815" y="68" type="line" smooth="yes"/>
      <point x="806" y="18"/>
      <point x="822" y="0"/>
      <point x="867" y="0" type="curve" smooth="yes"/>
      <point x="1036" y="0" type="line" smooth="yes"/>
      <point x="1081" y="0"/>
      <point x="1102" y="18"/>
      <point x="1110" y="68" type="curve" smooth="yes"/>
      <point x="1119" y="118"/>
      <point x="1104" y="136"/>
      <point x="1059" y="136" type="curve" smooth="yes"/>
      <point x="977" y="136" type="line"/>
      <point x="1061" y="610" type="line" smooth="yes"/>
      <point x="1066" y="637"/>
      <point x="1068" y="662"/>
      <point x="1068" y="686" type="curve" smooth="yes"/>
      <point x="1068" y="844"/>
      <point x="973" y="946"/>
      <point x="813" y="946" type="curve" smooth="yes"/>
    </contour>
  </outline>
</glyph>
<glyph name="o" format="1">
  <advance width="1228"/>
  <unicode hex="006F"/>
  <outline>
    <contour>
      <point x="357" y="946"/>
      <point x="126" y="679"/>
      <point x="126" y="386" type="curve"/>
      <point x="126" y="150"/>
      <point x="299" y="-22"/>
      <point x="550" y="-22" type="curve" smooth="yes"/>
      <point x="893" y="-22"/>
      <point x="1124" y="245"/>
      <point x="1124" y="538" type="curve" smooth="yes"/>
      <point x="1124" y="774"/>
      <point x="951" y="946"/>
      <point x="700" y="946" type="curve" smooth="yes"/>
    </contour>
    <contour>
      <point x="860" y="798"/>
      <point x="967" y="689"/>
      <point x="967" y="530" type="curve" smooth="yes"/>
      <point x="967" y="317"/>
      <point x="801" y="126"/>
      <point x="566" y="126" type="curve" smooth="yes"/>
      <point x="390" y="126"/>
      <point x="283" y="235"/>
      <point x="283" y="394" type="curve" smooth="yes"/>
      <point x="283" y="607"/>
      <point x="449" y="798"/>
      <point x="684" y="798" type="curve"/>
    </contour>
  </outline>
</glyph>
<glyph name="y" format="1">
  <advance width="1228"/>
  <unicode hex="0079"/>
  <outline>
    <contour>
      <point x="893" y="924" type="line" smooth="yes"/>
      <point x="848" y="924"/>
      <point x="827" y="906"/>
      <point x="818" y="856" type="curve" smooth="yes"/>
      <point x="810" y="806"/>
      <point x="824" y="788"/>
      <point x="869" y="788" type="curve" smooth="yes"/>
      <point x="954" y="788" type="line"/>
      <point x="586" y="226" type="line"/>
      <point x="403" y="788" type="line"/>
      <point x="535" y="788" type="line" smooth="yes"/>
      <point x="580" y="788"/>
      <point x="602" y="806"/>
      <point x="610" y="856" type="curve" smooth="yes"/>
      <point x="619" y="906"/>
      <point x="604" y="924"/>
      <point x="559" y="924" type="curve" smooth="yes"/>
      <point x="205" y="924" type="line" smooth="yes"/>
      <point x="160" y="924"/>
      <point x="139" y="906"/>
      <point x="130" y="856" type="curve" smooth="yes"/>
      <point x="122" y="806"/>
      <point x="136" y="788"/>
      <point x="181" y="788" type="curve" smooth="yes"/>
      <point x="247" y="788" type="line"/>
      <point x="484" y="78" type="line"/>
      <point x="303" y="-192"/>
      <point x="235" y="-249"/>
      <point x="48" y="-259" type="curve" smooth="yes"/>
      <point x="12" y="-261"/>
      <point x="-14" y="-285"/>
      <point x="-14" y="-343" type="curve" smooth="yes"/>
      <point x="-14" y="-396"/>
      <point x="17" y="-411"/>
      <point x="57" y="-410" type="curve" smooth="yes"/>
      <point x="278" y="-402"/>
      <point x="394" y="-313"/>
      <point x="568" y="-50" type="curve" smooth="yes"/>
      <point x="1124" y="788" type="line"/>
      <point x="1183" y="788" type="line" smooth="yes"/>
      <point x="1228" y="788"/>
      <point x="1250" y="806"/>
      <point x="1258" y="856" type="curve" smooth="yes"/>
      <point x="1267" y="906"/>
      <point x="1252" y="924"/>
      <point x="1207" y="924" type="curve" smooth="yes"/>
    </contour>
  </outline>
</glyph>
<glyph name="bar" format="1">
  <advance width="1228"/>
  <unicode hex="007C"/>
  <outline>
    <contour>
      <point x="723" y="1334"/>
      <point x="700" y="1315"/>
      <point x="692" y="1269" type="curve" smooth="yes"/>
      <point x="408" y="-345" type="line" smooth="yes"/>
      <point x="400" y="-391"/>
      <point x="415" y="-410"/>
      <point x="471" y="-410" type="curve" smooth="yes"/>
      <point x="527" y="-410"/>
      <point x="550" y="-391"/>
      <point x="558" y="-345" type="curve" smooth="yes"/>
      <point x="842" y="1269" type="line" smooth="yes"/>
      <point x="850" y="1315"/>
      <point x="835" y="1334"/>
      <point x="779" y="1334" type="curve" smooth="yes"/>
    </contour>
  </outline>
</glyph>
<glyph name="asciitilde" format="1">
  <advance width="1228"/>
  <unicode hex="007E"/>
  <outline>
    <contour>
      <point x="342" y="735"/>
      <point x="248" y="666"/>
      <point x="188" y="568" type="curve" smooth="yes"/>
      <point x="173" y="543"/>
      <point x="182" y="514"/>
      <point x="213" y="491" type="curve" smooth="yes"/>
      <point x="245" y="467"/>
      <point x="274" y="469"/>
      <point x="294" y="493" type="curve" smooth="yes"/>
      <point x="340" y="548"/>
      <point x="390" y="577"/>
      <point x="449" y="577" type="curve" smooth="yes"/>
      <point x="572" y="577"/>
      <point x="678" y="429"/>
      <point x="841" y="429" type="curve" smooth="yes"/>
      <point x="948" y="429"/>
      <point x="1042" y="498"/>
      <point x="1102" y="596" type="curve" smooth="yes"/>
      <point x="1117" y="621"/>
      <point x="1108" y="650"/>
      <point x="1077" y="673" type="curve" smooth="yes"/>
      <point x="1045" y="697"/>
      <point x="1016" y="695"/>
      <point x="996" y="671" type="curve" smooth="yes"/>
      <point x="950" y="616"/>
      <point x="900" y="587"/>
      <point x="841" y="587" type="curve" smooth="yes"/>
      <point x="717" y="587"/>
      <point x="612" y="735"/>
      <point x="449" y="735" type="curve" smooth="yes"/>
    </contour>
  </outline>
</glyph>
<glyph name="cent" format="1">
  <advance width="1228"/>
  <unicode hex="00A2"/>
  <outline>
    <contour>
      <point x="726" y="1312"/>
      <point x="701" y="1293"/>
      <point x="693" y="1247" type="curve" smooth="yes"/>
      <point x="664" y="1083" type="line"/>
      <point x="357" y="1052"/>
      <point x="157" y="795"/>
      <point x="157" y="520" type="curve" smooth="yes"/>
      <point x="157" y="313"/>
      <point x="283" y="153"/>
      <point x="495" y="123" type="curve"/>
      <point x="463" y="-60" type="line" smooth="yes"/>
      <point x="455" y="-106"/>
      <point x="472" y="-125"/>
      <point x="521" y="-125" type="curve" smooth="yes"/>
      <point x="570" y="-125"/>
      <point x="595" y="-106"/>
      <point x="603" y="-60" type="curve" smooth="yes"/>
      <point x="635" y="120" type="line"/>
      <point x="766" y="132"/>
      <point x="899" y="178"/>
      <point x="1004" y="245" type="curve" smooth="yes"/>
      <point x="1044" y="271"/>
      <point x="1054" y="307"/>
      <point x="1029" y="351" type="curve" smooth="yes"/>
      <point x="1003" y="397"/>
      <point x="967" y="399"/>
      <point x="936" y="378" type="curve" smooth="yes"/>
      <point x="850" y="320"/>
      <point x="757" y="283"/>
      <point x="661" y="271" type="curve"/>
      <point x="778" y="934" type="line"/>
      <point x="915" y="916"/>
      <point x="974" y="837"/>
      <point x="959" y="731" type="curve" smooth="yes"/>
      <point x="952" y="685"/>
      <point x="968" y="666"/>
      <point x="1024" y="666" type="curve" smooth="yes"/>
      <point x="1080" y="666"/>
      <point x="1100" y="685"/>
      <point x="1108" y="731" type="curve" smooth="yes"/>
      <point x="1159" y="1021" type="line" smooth="yes"/>
      <point x="1167" y="1067"/>
      <point x="1151" y="1086"/>
      <point x="1095" y="1086" type="curve" smooth="yes"/>
      <point x="1039" y="1086"/>
      <point x="1018" y="1067"/>
      <point x="1009" y="1021" type="curve" smooth="yes"/>
      <point x="996" y="951" type="line"/>
      <point x="955" y="1014"/>
      <point x="888" y="1060"/>
      <point x="803" y="1078" type="curve"/>
      <point x="833" y="1247" type="line" smooth="yes"/>
      <point x="841" y="1293"/>
      <point x="824" y="1312"/>
      <point x="775" y="1312" type="curve" smooth="yes"/>
    </contour>
    <contour>
      <point x="521" y="272" type="line"/>
      <point x="390" y="296"/>
      <point x="315" y="395"/>
      <point x="315" y="531" type="curve" smooth="yes"/>
      <point x="315" y="722"/>
      <point x="448" y="893"/>
      <point x="637" y="930" type="curve"/>
    </contour>
  </outline>
</glyph>
<glyph name="currency" format="1">
  <advance width="1228"/>
  <unicode hex="00A4"/>
  <outline>
    <contour>
      <point x="435" y="1006"/>
      <point x="247" y="791"/>
      <point x="247" y="545" type="curve" smooth="yes"/>
      <point x="247" y="341"/>
      <point x="389" y="198"/>
      <point x="604" y="198" type="curve" smooth="yes"/>
      <point x="865" y="198"/>
      <point x="1053" y="413"/>
      <point x="1053" y="659" type="curve" smooth="yes"/>
      <point x="1053" y="863"/>
      <point x="911" y="1006"/>
      <point x="696" y="1006" type="curve" smooth="yes"/>
    </contour>
    <contour>
      <point x="125" y="255" type="line" smooth="yes"/>
      <point x="90" y="226"/>
      <point x="89" y="199"/>
      <point x="122" y="159" type="curve" smooth="yes"/>
      <point x="156" y="119"/>
      <point x="183" y="116"/>
      <point x="217" y="145" type="curve" smooth="yes"/>
      <point x="421" y="316" type="line"/>
      <point x="332" y="428" type="line"/>
    </contour>
    <contour>
      <point x="791" y="322" type="line"/>
      <point x="950" y="133" type="line" smooth="yes"/>
      <point x="979" y="98"/>
      <point x="1006" y="97"/>
      <point x="1046" y="130" type="curve" smooth="yes"/>
      <point x="1086" y="164"/>
      <point x="1089" y="191"/>
      <point x="1060" y="225" type="curve" smooth="yes"/>
      <point x="900" y="415" type="line"/>
    </contour>
    <contour>
      <point x="825" y="864"/>
      <point x="906" y="778"/>
      <point x="906" y="652" type="curve" smooth="yes"/>
      <point x="906" y="497"/>
      <point x="796" y="340"/>
      <point x="614" y="340" type="curve" smooth="yes"/>
      <point x="475" y="340"/>
      <point x="394" y="426"/>
      <point x="394" y="552" type="curve" smooth="yes"/>
      <point x="394" y="707"/>
      <point x="504" y="864"/>
      <point x="686" y="864" type="curve" smooth="yes"/>
    </contour>
    <contour>
      <point x="214" y="1040"/>
      <point x="211" y="1013"/>
      <point x="240" y="979" type="curve" smooth="yes"/>
      <point x="400" y="789" type="line"/>
      <point x="509" y="882" type="line"/>
      <point x="350" y="1071" type="line" smooth="yes"/>
      <point x="321" y="1106"/>
      <point x="294" y="1107"/>
      <point x="254" y="1074" type="curve" smooth="yes"/>
    </contour>
    <contour>
      <point x="879" y="888" type="line"/>
      <point x="968" y="776" type="line"/>
      <point x="1175" y="949" type="line" smooth="yes"/>
      <point x="1210" y="978"/>
      <point x="1211" y="1005"/>
      <point x="1178" y="1045" type="curve" smooth="yes"/>
      <point x="1144" y="1085"/>
      <point x="1117" y="1088"/>
      <point x="1083" y="1059" type="curve" smooth="yes"/>
    </contour>
  </outline>
</glyph>
<glyph name="copyright" format="1">
  <advance width="1228"/>
  <unicode hex="00A9"/>
  <outline>
    <contour>
      <point x="373" y="1209"/>
      <point x="61" y="883"/>
      <point x="61" y="484" type="curve" smooth="yes"/>
      <point x="61" y="197"/>
      <point x="254" y="-22"/>
      <point x="553" y="-22" type="curve" smooth="yes"/>
      <point x="926" y="-22"/>
      <point x="1235" y="306"/>
      <point x="1235" y="705" type="curve" smooth="yes"/>
      <point x="1235" y="991"/>
      <point x="1043" y="1209"/>
      <point x="744" y="1209" type="curve" smooth="yes"/>
    </contour>
    <contour>
      <point x="612" y="937"/>
      <point x="522" y="900"/>
      <point x="456" y="829" type="curve" smooth="yes"/>
      <point x="380" y="748"/>
      <point x="344" y="628"/>
      <point x="344" y="526" type="curve" smooth="yes"/>
      <point x="344" y="355"/>
      <point x="453" y="249"/>
      <point x="612" y="249" type="curve" smooth="yes"/>
      <point x="671" y="249"/>
      <point x="739" y="263"/>
      <point x="799" y="289" type="curve" smooth="yes"/>
      <point x="842" y="307"/>
      <point x="852" y="330"/>
      <point x="839" y="372" type="curve" smooth="yes"/>
      <point x="826" y="414"/>
      <point x="806" y="422"/>
      <point x="770" y="407" type="curve" smooth="yes"/>
      <point x="718" y="385"/>
      <point x="676" y="375"/>
      <point x="625" y="375" type="curve" smooth="yes"/>
      <point x="539" y="375"/>
      <point x="476" y="429"/>
      <point x="476" y="535" type="curve" smooth="yes"/>
      <point x="476" y="607"/>
      <point x="502" y="683"/>
      <point x="544" y="735" type="curve" smooth="yes"/>
      <point x="586" y="786"/>
      <point x="642" y="811"/>
      <point x="702" y="811" type="curve" smooth="yes"/>
      <point x="753" y="811"/>
      <point x="792" y="801"/>
      <point x="836" y="779" type="curve" smooth="yes"/>
      <point x="866" y="764"/>
      <point x="892" y="770"/>
      <point x="913" y="812" type="curve" smooth="yes"/>
      <point x="934" y="854"/>
      <point x="922" y="879"/>
      <point x="887" y="897" type="curve" smooth="yes"/>
      <point x="835" y="923"/>
      <point x="773" y="937"/>
      <point x="714" y="937" type="curve" smooth="yes"/>
    </contour>
    <contour>
      <point x="971" y="1089"/>
      <point x="1114" y="931"/>
      <point x="1114" y="702" type="curve" smooth="yes"/>
      <point x="1114" y="363"/>
      <point x="861" y="98"/>
      <point x="561" y="98" type="curve" smooth="yes"/>
      <point x="325" y="98"/>
      <point x="182" y="257"/>
      <point x="182" y="487" type="curve" smooth="yes"/>
      <point x="182" y="826"/>
      <point x="438" y="1089"/>
      <point x="736" y="1089" type="curve" smooth="yes"/>
    </contour>
  </outline>
</glyph>
<glyph name="registered" format="1">
  <advance width="1228"/>
  <unicode hex="00AE"/>
  <outline>
    <contour>
      <point x="460" y="1334"/>
      <point x="200" y="1062"/>
      <point x="200" y="730" type="curve" smooth="yes"/>
      <point x="200" y="491"/>
      <point x="361" y="308"/>
      <point x="610" y="308" type="curve" smooth="yes"/>
      <point x="921" y="308"/>
      <point x="1178" y="582"/>
      <point x="1178" y="914" type="curve" smooth="yes"/>
      <point x="1178" y="1152"/>
      <point x="1018" y="1334"/>
      <point x="769" y="1334" type="curve" smooth="yes"/>
    </contour>
    <contour>
      <point x="958" y="1234"/>
      <point x="1077" y="1102"/>
      <point x="1077" y="912" type="curve" smooth="yes"/>
      <point x="1077" y="629"/>
      <point x="867" y="408"/>
      <point x="617" y="408" type="curve" smooth="yes"/>
      <point x="420" y="408"/>
      <point x="301" y="541"/>
      <point x="301" y="732" type="curve" smooth="yes"/>
      <point x="301" y="1015"/>
      <point x="514" y="1234"/>
      <point x="762" y="1234" type="curve" smooth="yes"/>
    </contour>
    <contour>
      <point x="600" y="1091" type="line" smooth="yes"/>
      <point x="562" y="1091"/>
      <point x="543" y="1076"/>
      <point x="537" y="1038" type="curve" smooth="yes"/>
      <point x="461" y="606" type="line" smooth="yes"/>
      <point x="454" y="567"/>
      <point x="463" y="552"/>
      <point x="501" y="552" type="curve" smooth="yes"/>
      <point x="540" y="552"/>
      <point x="557" y="567"/>
      <point x="564" y="606" type="curve" smooth="yes"/>
      <point x="583" y="718" type="line"/>
      <point x="667" y="718" type="line"/>
      <point x="771" y="569" type="line" smooth="yes"/>
      <point x="787" y="547"/>
      <point x="802" y="541"/>
      <point x="837" y="564" type="curve" smooth="yes"/>
      <point x="871" y="587"/>
      <point x="871" y="607"/>
      <point x="851" y="634" type="curve" smooth="yes"/>
      <point x="775" y="736" type="line"/>
      <point x="872" y="767"/>
      <point x="927" y="839"/>
      <point x="927" y="932" type="curve" smooth="yes"/>
      <point x="927" y="1023"/>
      <point x="857" y="1091"/>
      <point x="747" y="1091" type="curve" smooth="yes"/>
    </contour>
    <contour>
      <point x="789" y="993"/>
      <point x="818" y="967"/>
      <point x="818" y="925" type="curve" smooth="yes"/>
      <point x="818" y="867"/>
      <point x="778" y="816"/>
      <point x="689" y="816" type="curve" smooth="yes"/>
      <point x="601" y="816" type="line"/>
      <point x="632" y="993" type="line"/>
      <point x="728" y="993" type="line" smooth="yes"/>
    </contour>
  </outline>
</glyph>
<glyph name="degree" format="1">
  <advance width="1228"/>
  <unicode hex="00B0"/>
  <outline>
    <contour>
      <point x="464" y="1209"/>
      <point x="337" y="1057"/>
      <point x="337" y="894" type="curve" smooth="yes"/>
      <point x="337" y="750"/>
      <point x="447" y="649"/>
      <point x="586" y="649" type="curve" smooth="yes"/>
      <point x="774" y="649"/>
      <point x="901" y="797"/>
      <point x="901" y="965" type="curve" smooth="yes"/>
      <point x="901" y="1109"/>
      <point x="792" y="1209"/>
      <point x="653" y="1209" type="curve" smooth="yes"/>
    </contour>
    <contour>
      <point x="720" y="1074"/>
      <point x="766" y="1024"/>
      <point x="766" y="956" type="curve" smooth="yes"/>
      <point x="766" y="867"/>
      <point x="696" y="784"/>
      <point x="598" y="784" type="curve" smooth="yes"/>
      <point x="518" y="784"/>
      <point x="472" y="834"/>
      <point x="472" y="902" type="curve" smooth="yes"/>
      <point x="472" y="991"/>
      <point x="543" y="1074"/>
      <point x="641" y="1074" type="curve" smooth="yes"/>
    </contour>
  </outline>
</glyph>
<glyph name="onesuperior" format="1">
  <advance width="1228"/>
  <unicode hex="00B9"/>
  <outline>
    <contour>
      <point x="820" y="1334"/>
      <point x="812" y="1333"/>
      <point x="802" y="1330" type="curve" smooth="yes"/>
      <point x="503" y="1239" type="line" smooth="yes"/>
      <point x="458" y="1226"/>
      <point x="451" y="1204"/>
      <point x="461" y="1161" type="curve" smooth="yes"/>
      <point x="471" y="1118"/>
      <point x="487" y="1111"/>
      <point x="523" y="1122" type="curve" smooth="yes"/>
      <point x="707" y="1179" type="line"/>
      <point x="606" y="608" type="line"/>
      <point x="401" y="608" type="line" smooth="yes"/>
      <point x="365" y="608"/>
      <point x="347" y="586"/>
      <point x="341" y="546" type="curve" smooth="yes"/>
      <point x="335" y="508"/>
      <point x="341" y="483"/>
      <point x="380" y="483" type="curve" smooth="yes"/>
      <point x="914" y="483" type="line" smooth="yes"/>
      <point x="950" y="483"/>
      <point x="968" y="505"/>
      <point x="974" y="545" type="curve" smooth="yes"/>
      <point x="980" y="583"/>
      <point x="974" y="608"/>
      <point x="935" y="608" type="curve" smooth="yes"/>
      <point x="741" y="608" type="line"/>
      <point x="862" y="1292" type="line" smooth="yes"/>
      <point x="866" y="1318"/>
      <point x="853" y="1334"/>
      <point x="827" y="1334" type="curve" smooth="yes"/>
    </contour>
  </outline>
</glyph>
<glyph name="onehalf" format="1">
  <advance width="1228"/>
  <unicode hex="00BD"/>
  <outline>
    <contour>
      <point x="878" y="494"/>
      <point x="787" y="469"/>
      <point x="712" y="425" type="curve" smooth="yes"/>
      <point x="700" y="418"/>
      <point x="691" y="406"/>
      <point x="688" y="390" type="curve" smooth="yes"/>
      <point x="666" y="268" type="line" smooth="yes"/>
      <point x="661" y="240"/>
      <point x="674" y="225"/>
      <point x="715" y="225" type="curve" smooth="yes"/>
      <point x="757" y="225"/>
      <point x="774" y="240"/>
      <point x="779" y="268" type="curve" smooth="yes"/>
      <point x="794" y="353" type="line"/>
      <point x="836" y="373"/>
      <point x="887" y="386"/>
      <point x="934" y="386" type="curve" smooth="yes"/>
      <point x="1009" y="386"/>
      <point x="1046" y="351"/>
      <point x="1046" y="298" type="curve" smooth="yes"/>
      <point x="1046" y="234"/>
      <point x="1007" y="191"/>
      <point x="926" y="132" type="curve" smooth="yes"/>
      <point x="608" y="-102" type="line" smooth="yes"/>
      <point x="590" y="-115"/>
      <point x="576" y="-132"/>
      <point x="572" y="-156" type="curve" smooth="yes"/>
      <point x="565" y="-194"/>
      <point x="575" y="-216"/>
      <point x="601" y="-216" type="curve" smooth="yes"/>
      <point x="1078" y="-216" type="line" smooth="yes"/>
      <point x="1105" y="-216"/>
      <point x="1122" y="-201"/>
      <point x="1127" y="-172" type="curve" smooth="yes"/>
      <point x="1150" y="-47" type="line" smooth="yes"/>
      <point x="1155" y="-19"/>
      <point x="1142" y="-4"/>
      <point x="1101" y="-4" type="curve" smooth="yes"/>
      <point x="1060" y="-4"/>
      <point x="1042" y="-19"/>
      <point x="1037" y="-47" type="curve" smooth="yes"/>
      <point x="1025" y="-112" type="line"/>
      <point x="757" y="-112" type="line"/>
      <point x="985" y="53" type="line" smooth="yes"/>
      <point x="1106" y="140"/>
      <point x="1166" y="208"/>
      <point x="1166" y="308" type="curve" smooth="yes"/>
      <point x="1166" y="423"/>
      <point x="1086" y="494"/>
      <point x="954" y="494" type="curve" smooth="yes"/>
    </contour>
    <contour>
      <point x="104" y="329" type="line" smooth="yes"/>
      <point x="83" y="317"/>
      <point x="78" y="290"/>
      <point x="93" y="264" type="curve" smooth="yes"/>
      <point x="107" y="238"/>
      <point x="130" y="230"/>
      <point x="149" y="240" type="curve" smooth="yes"/>
      <point x="1166" y="801" type="line" smooth="yes"/>
      <point x="1187" y="813"/>
      <point x="1191" y="840"/>
      <point x="1177" y="866" type="curve" smooth="yes"/>
      <point x="1163" y="892"/>
      <point x="1140" y="900"/>
      <point x="1121" y="890" type="curve" smooth="yes"/>
    </contour>
    <contour>
      <point x="460" y="1394"/>
      <point x="453" y="1393"/>
      <point x="445" y="1390" type="curve" smooth="yes"/>
      <point x="195" y="1314" type="line" smooth="yes"/>
      <point x="157" y="1303"/>
      <point x="152" y="1285"/>
      <point x="160" y="1249" type="curve" smooth="yes"/>
      <point x="168" y="1213"/>
      <point x="182" y="1208"/>
      <point x="212" y="1217" type="curve" smooth="yes"/>
      <point x="365" y="1264" type="line"/>
      <point x="281" y="788" type="line"/>
      <point x="110" y="788" type="line" smooth="yes"/>
      <point x="80" y="788"/>
      <point x="65" y="770"/>
      <point x="60" y="736" type="curve" smooth="yes"/>
      <point x="55" y="705"/>
      <point x="60" y="684"/>
      <point x="92" y="684" type="curve" smooth="yes"/>
      <point x="538" y="684" type="line" smooth="yes"/>
      <point x="568" y="684"/>
      <point x="583" y="702"/>
      <point x="588" y="736" type="curve" smooth="yes"/>
      <point x="593" y="767"/>
      <point x="588" y="788"/>
      <point x="556" y="788" type="curve" smooth="yes"/>
      <point x="394" y="788" type="line"/>
      <point x="495" y="1359" type="line" smooth="yes"/>
      <point x="498" y="1380"/>
      <point x="487" y="1394"/>
      <point x="466" y="1394" type="curve" smooth="yes"/>
    </contour>
  </outline>
</glyph>
<glyph name="ae" format="1">
  <advance width="1228"/>
  <unicode hex="00E6"/>
  <outline>
    <contour>
      <point x="845" y="946"/>
      <point x="761" y="907"/>
      <point x="695" y="830" type="curve"/>
      <point x="665" y="903"/>
      <point x="601" y="946"/>
      <point x="494" y="946" type="curve" smooth="yes"/>
      <point x="400" y="946"/>
      <point x="308" y="917"/>
      <point x="211" y="844" type="curve" smooth="yes"/>
      <point x="176" y="818"/>
      <point x="171" y="784"/>
      <point x="196" y="748" type="curve" smooth="yes"/>
      <point x="220" y="713"/>
      <point x="253" y="707"/>
      <point x="286" y="729" type="curve" smooth="yes"/>
      <point x="355" y="776"/>
      <point x="418" y="801"/>
      <point x="479" y="801" type="curve" smooth="yes"/>
      <point x="557" y="801"/>
      <point x="584" y="760"/>
      <point x="584" y="689" type="curve" smooth="yes"/>
      <point x="584" y="664"/>
      <point x="581" y="635"/>
      <point x="575" y="602" type="curve" smooth="yes"/>
      <point x="571" y="580" type="line"/>
      <point x="437" y="580"/>
      <point x="323" y="556"/>
      <point x="236" y="510" type="curve" smooth="yes"/>
      <point x="114" y="445"/>
      <point x="44" y="325"/>
      <point x="44" y="195" type="curve" smooth="yes"/>
      <point x="44" y="65"/>
      <point x="133" y="-22"/>
      <point x="271" y="-22" type="curve" smooth="yes"/>
      <point x="379" y="-22"/>
      <point x="490" y="33"/>
      <point x="570" y="122" type="curve"/>
      <point x="608" y="24"/>
      <point x="684" y="-22"/>
      <point x="789" y="-22" type="curve" smooth="yes"/>
      <point x="884" y="-22"/>
      <point x="970" y="14"/>
      <point x="1056" y="84" type="curve" smooth="yes"/>
      <point x="1094" y="114"/>
      <point x="1105" y="149"/>
      <point x="1080" y="187" type="curve" smooth="yes"/>
      <point x="1056" y="225"/>
      <point x="1017" y="226"/>
      <point x="988" y="201" type="curve" smooth="yes"/>
      <point x="922" y="147"/>
      <point x="868" y="123"/>
      <point x="804" y="123" type="curve" smooth="yes"/>
      <point x="734" y="123"/>
      <point x="684" y="170"/>
      <point x="684" y="308" type="curve" smooth="yes"/>
      <point x="684" y="345"/>
      <point x="688" y="389"/>
      <point x="696" y="440" type="curve"/>
      <point x="1095" y="440" type="line"/>
      <point x="1140" y="440"/>
      <point x="1162" y="457"/>
      <point x="1169" y="502" type="curve" smooth="yes"/>
      <point x="1177" y="554"/>
      <point x="1181" y="602"/>
      <point x="1181" y="647" type="curve" smooth="yes"/>
      <point x="1181" y="831"/>
      <point x="1110" y="946"/>
      <point x="939" y="946" type="curve" smooth="yes"/>
    </contour>
    <contour>
      <point x="528" y="340" type="line" smooth="yes"/>
      <point x="506" y="211"/>
      <point x="402" y="119"/>
      <point x="289" y="119" type="curve" smooth="yes"/>
      <point x="232" y="119"/>
      <point x="197" y="151"/>
      <point x="197" y="209" type="curve" smooth="yes"/>
      <point x="197" y="288"/>
      <point x="239" y="359"/>
      <point x="316" y="398" type="curve" smooth="yes"/>
      <point x="373" y="427"/>
      <point x="451" y="440"/>
      <point x="546" y="440" type="curve"/>
    </contour>
    <contour>
      <point x="1001" y="801"/>
      <point x="1031" y="745"/>
      <point x="1031" y="649" type="curve" smooth="yes"/>
      <point x="1031" y="628"/>
      <point x="1029" y="605"/>
      <point x="1026" y="580" type="curve"/>
      <point x="726" y="580" type="line"/>
      <point x="770" y="739"/>
      <point x="834" y="801"/>
      <point x="926" y="801" type="curve" smooth="yes"/>
    </contour>
  </outline>
</glyph>
<glyph name="oslash" format="1">
  <advance width="1228"/>
  <unicode hex="00F8"/>
  <outline>
    <contour>
      <point x="55" y="81" type="line" smooth="yes"/>
      <point x="16" y="49"/>
      <point x="19" y="22"/>
      <point x="49" y="-13" type="curve" smooth="yes"/>
      <point x="79" y="-47"/>
      <point x="112" y="-51"/>
      <point x="151" y="-19" type="curve" smooth="yes"/>
      <point x="1193" y="842" type="line" smooth="yes"/>
      <point x="1232" y="874"/>
      <point x="1231" y="902"/>
      <point x="1201" y="937" type="curve" smooth="yes"/>
      <point x="1171" y="971"/>
      <point x="1137" y="975"/>
      <point x="1098" y="943" type="curve" smooth="yes"/>
    </contour>
    <component base="o"/>
  </outline>
</glyph>
<glyph name="hbar" format="1">
  <advance width="1228"/>
  <unicode hex="0127"/>
  <outline>
    <contour>
      <point x="301" y="1312" type="line" smooth="yes"/>
      <point x="256" y="1312"/>
      <point x="235" y="1294"/>
      <point x="226" y="1244" type="curve" smooth="yes"/>
      <point x="217" y="1194"/>
      <point x="232" y="1176"/>
      <point x="277" y="1176" type="curve" smooth="yes"/>
      <point x="369" y="1176" type="line"/>
      <point x="171" y="55" type="line" smooth="yes"/>
      <point x="163" y="9"/>
      <point x="179" y="-10"/>
      <point x="235" y="-10" type="curve" smooth="yes"/>
      <point x="291" y="-10"/>
      <point x="313" y="9"/>
      <point x="321" y="55" type="curve" smooth="yes"/>
      <point x="371" y="342" type="line" smooth="yes"/>
      <point x="409" y="560"/>
      <point x="590" y="738"/>
      <point x="761" y="738" type="curve" smooth="yes"/>
      <point x="852" y="738"/>
      <point x="894" y="683"/>
      <point x="894" y="598" type="curve" smooth="yes"/>
      <point x="894" y="581"/>
      <point x="892" y="564"/>
      <point x="889" y="545" type="curve" smooth="yes"/>
      <point x="805" y="68" type="line" smooth="yes"/>
      <point x="796" y="18"/>
      <point x="812" y="0"/>
      <point x="857" y="0" type="curve" smooth="yes"/>
      <point x="1026" y="0" type="line" smooth="yes"/>
      <point x="1071" y="0"/>
      <point x="1092" y="18"/>
      <point x="1100" y="68" type="curve" smooth="yes"/>
      <point x="1109" y="118"/>
      <point x="1094" y="136"/>
      <point x="1049" y="136" type="curve" smooth="yes"/>
      <point x="967" y="136" type="line"/>
      <point x="1040" y="550" type="line" smooth="yes"/>
      <point x="1045" y="577"/>
      <point x="1047" y="603"/>
      <point x="1047" y="627" type="curve" smooth="yes"/>
      <point x="1047" y="784"/>
      <point x="951" y="886"/>
      <point x="792" y="886" type="curve" smooth="yes"/>
      <point x="666" y="886"/>
      <point x="542" y="817"/>
      <point x="433" y="690" type="curve"/>
      <point x="531" y="1244" type="line" smooth="yes"/>
      <point x="540" y="1294"/>
      <point x="525" y="1312"/>
      <point x="480" y="1312" type="curve" smooth="yes"/>
    </contour>
    <contour>
      <point x="208" y="1106" type="line" smooth="yes"/>
      <point x="163" y="1106"/>
      <point x="142" y="1088"/>
      <point x="133" y="1038" type="curve" smooth="yes"/>
      <point x="124" y="988"/>
      <point x="139" y="970"/>
      <point x="184" y="970" type="curve" smooth="yes"/>
      <point x="726" y="970" type="line" smooth="yes"/>
      <point x="771" y="970"/>
      <point x="792" y="988"/>
      <point x="801" y="1038" type="curve" smooth="yes"/>
      <point x="810" y="1088"/>
      <point x="795" y="1106"/>
      <point x="750" y="1106" type="curve" smooth="yes"/>
    </contour>
  </outline>
</glyph>
<glyph name="oe" format="1">
  <advance width="1228"/>
  <unicode hex="0153"/>
  <outline>
    <contour>
      <point x="843" y="946"/>
      <point x="751" y="904"/>
      <point x="675" y="806" type="curve"/>
      <point x="642" y="897"/>
      <point x="574" y="946"/>
      <point x="468" y="946" type="curve" smooth="yes"/>
      <point x="339" y="946"/>
      <point x="241" y="878"/>
      <point x="173" y="753" type="curve" smooth="yes"/>
      <point x="104" y="626"/>
      <point x="66" y="430"/>
      <point x="66" y="299" type="curve" smooth="yes"/>
      <point x="66" y="94"/>
      <point x="152" y="-22"/>
      <point x="318" y="-22" type="curve" smooth="yes"/>
      <point x="423" y="-22"/>
      <point x="508" y="26"/>
      <point x="573" y="116" type="curve"/>
      <point x="612" y="22"/>
      <point x="686" y="-22"/>
      <point x="789" y="-22" type="curve" smooth="yes"/>
      <point x="884" y="-22"/>
      <point x="970" y="14"/>
      <point x="1056" y="84" type="curve" smooth="yes"/>
      <point x="1094" y="114"/>
      <point x="1105" y="149"/>
      <point x="1080" y="187" type="curve" smooth="yes"/>
      <point x="1056" y="225"/>
      <point x="1017" y="226"/>
      <point x="988" y="201" type="curve" smooth="yes"/>
      <point x="922" y="147"/>
      <point x="868" y="123"/>
      <point x="804" y="123" type="curve" smooth="yes"/>
      <point x="734" y="123"/>
      <point x="684" y="170"/>
      <point x="684" y="308" type="curve" smooth="yes"/>
      <point x="684" y="345"/>
      <point x="688" y="389"/>
      <point x="696" y="440" type="curve"/>
      <point x="1095" y="440" type="line" smooth="yes"/>
      <point x="1140" y="440"/>
      <point x="1162" y="457"/>
      <point x="1169" y="502" type="curve" smooth="yes"/>
      <point x="1177" y="554"/>
      <point x="1181" y="602"/>
      <point x="1181" y="647" type="curve" smooth="yes"/>
      <point x="1181" y="831"/>
      <point x="1110" y="946"/>
      <point x="939" y="946" type="curve" smooth="yes"/>
    </contour>
    <contour>
      <point x="527" y="798"/>
      <point x="564" y="746"/>
      <point x="564" y="630" type="curve" smooth="yes"/>
      <point x="564" y="524"/>
      <point x="533" y="358"/>
      <point x="496" y="268" type="curve" smooth="yes"/>
      <point x="456" y="170"/>
      <point x="403" y="126"/>
      <point x="334" y="126" type="curve" smooth="yes"/>
      <point x="259" y="126"/>
      <point x="221" y="178"/>
      <point x="221" y="294" type="curve" smooth="yes"/>
      <point x="221" y="400"/>
      <point x="252" y="566"/>
      <point x="289" y="656" type="curve" smooth="yes"/>
      <point x="329" y="754"/>
      <point x="383" y="798"/>
      <point x="452" y="798" type="curve" smooth="yes"/>
    </contour>
    <contour>
      <point x="1001" y="801"/>
      <point x="1031" y="745"/>
      <point x="1031" y="649" type="curve" smooth="yes"/>
      <point x="1031" y="628"/>
      <point x="1029" y="605"/>
      <point x="1026" y="580" type="curve"/>
      <point x="726" y="580" type="line"/>
      <point x="770" y="739"/>
      <point x="834" y="801"/>
      <point x="926" y="801" type="curve" smooth="yes"/>
    </contour>
  </outline>
</glyph>
<glyph name="Tbar" format="1">
  <advance width="1228"/>
  <unicode hex="0166"/>
  <outline>
    <contour>
      <point x="324" y="1187" type="line" smooth="yes"/>
      <point x="279" y="1187"/>
      <point x="258" y="1169"/>
      <point x="249" y="1119" type="curve" smooth="yes"/>
      <point x="182" y="742" type="line" smooth="yes"/>
      <point x="174" y="696"/>
      <point x="190" y="677"/>
      <point x="246" y="677" type="curve" smooth="yes"/>
      <point x="302" y="677"/>
      <point x="324" y="696"/>
      <point x="332" y="742" type="curve" smooth="yes"/>
      <point x="387" y="1051" type="line"/>
      <point x="654" y="1051" type="line"/>
      <point x="571" y="586" type="line"/>
      <point x="366" y="586" type="line" smooth="yes"/>
      <point x="321" y="586"/>
      <point x="300" y="568"/>
      <point x="291" y="518" type="curve" smooth="yes"/>
      <point x="282" y="468"/>
      <point x="297" y="450"/>
      <point x="342" y="450" type="curve" smooth="yes"/>
      <point x="547" y="450" type="line"/>
      <point x="492" y="136" type="line"/>
      <point x="266" y="136" type="line" smooth="yes"/>
      <point x="221" y="136"/>
      <point x="200" y="118"/>
      <point x="191" y="68" type="curve" smooth="yes"/>
      <point x="183" y="18"/>
      <point x="198" y="0"/>
      <point x="243" y="0" type="curve" smooth="yes"/>
      <point x="865" y="0" type="line" smooth="yes"/>
      <point x="910" y="0"/>
      <point x="931" y="18"/>
      <point x="939" y="68" type="curve" smooth="yes"/>
      <point x="948" y="118"/>
      <point x="933" y="136"/>
      <point x="888" y="136" type="curve" smooth="yes"/>
      <point x="642" y="136" type="line"/>
      <point x="697" y="450" type="line"/>
      <point x="904" y="450" type="line" smooth="yes"/>
      <point x="949" y="450"/>
      <point x="970" y="468"/>
      <point x="979" y="518" type="curve" smooth="yes"/>
      <point x="988" y="568"/>
      <point x="973" y="586"/>
      <point x="928" y="586" type="curve" smooth="yes"/>
      <point x="721" y="586" type="line"/>
      <point x="804" y="1051" type="line"/>
      <point x="1071" y="1051" type="line"/>
      <point x="1016" y="742" type="line" smooth="yes"/>
      <point x="1008" y="696"/>
      <point x="1024" y="677"/>
      <point x="1080" y="677" type="curve" smooth="yes"/>
      <point x="1136" y="677"/>
      <point x="1158" y="696"/>
      <point x="1166" y="742" type="curve" smooth="yes"/>
      <point x="1233" y="1119" type="line" smooth="yes"/>
      <point x="1242" y="1169"/>
      <point x="1227" y="1187"/>
      <point x="1182" y="1187" type="curve" smooth="yes"/>
    </contour>
  </outline>
</glyph>
<glyph name="tbar" format="1">
  <advance width="1228"/>
  <unicode hex="0167"/>
  <outline>
    <contour>
      <point x="274" y="576" type="line" smooth="yes"/>
      <point x="229" y="576"/>
      <point x="208" y="558"/>
      <point x="199" y="508" type="curve" smooth="yes"/>
      <point x="190" y="458"/>
      <point x="205" y="440"/>
      <point x="250" y="440" type="curve" smooth="yes"/>
      <point x="812" y="440" type="line" smooth="yes"/>
      <point x="857" y="440"/>
      <point x="878" y="458"/>
      <point x="887" y="508" type="curve" smooth="yes"/>
      <point x="896" y="558"/>
      <point x="881" y="576"/>
      <point x="836" y="576" type="curve" smooth="yes"/>
    </contour>
    <component base="t"/>
  </outline>
</glyph>
<glyph name="quoteleft" format="1">
  <advance width="1228"/>
  <unicode hex="2018"/>
  <outline>
    <contour>
      <point x="849" y="1307"/>
      <point x="820" y="1292"/>
      <point x="801" y="1264" type="curve" smooth="yes"/>
      <point x="497" y="815" type="line" smooth="yes"/>
      <point x="473" y="780"/>
      <point x="481" y="752"/>
      <point x="514" y="752" type="curve" smooth="yes"/>
      <point x="703" y="752" type="line" smooth="yes"/>
      <point x="731" y="752"/>
      <point x="752" y="766"/>
      <point x="762" y="792" type="curve" smooth="yes"/>
      <point x="936" y="1238" type="line" smooth="yes"/>
      <point x="953" y="1281"/>
      <point x="932" y="1307"/>
      <point x="885" y="1307" type="curve" smooth="yes"/>
    </contour>
  </outline>
</glyph>
<glyph name="quotesinglbase" format="1">
  <advance width="1228"/>
  <unicode hex="201A"/>
  <outline>
    <contour>
      <point x="566" y="294" type="line" smooth="yes"/>
      <point x="538" y="294"/>
      <point x="517" y="280"/>
      <point x="507" y="254" type="curve" smooth="yes"/>
      <point x="333" y="-192" type="line" smooth="yes"/>
      <point x="316" y="-235"/>
      <point x="337" y="-261"/>
      <point x="384" y="-261" type="curve" smooth="yes"/>
      <point x="420" y="-261"/>
      <point x="449" y="-246"/>
      <point x="468" y="-218" type="curve" smooth="yes"/>
      <point x="772" y="231" type="line" smooth="yes"/>
      <point x="796" y="266"/>
      <point x="788" y="294"/>
      <point x="755" y="294" type="curve" smooth="yes"/>
    </contour>
  </outline>
</glyph>
<glyph name="ellipsis" format="1">
  <advance width="1228"/>
  <unicode hex="2026"/>
  <outline>
    <contour>
      <point x="904" y="244"/>
      <point x="828" y="176"/>
      <point x="828" y="93" type="curve" smooth="yes"/>
      <point x="828" y="29"/>
      <point x="876" y="-22"/>
      <point x="943" y="-22" type="curve" smooth="yes"/>
      <point x="1023" y="-22"/>
      <point x="1098" y="46"/>
      <point x="1098" y="130" type="curve" smooth="yes"/>
      <point x="1098" y="193"/>
      <point x="1050" y="244"/>
      <point x="983" y="244" type="curve" smooth="yes"/>
    </contour>
    <contour>
      <point x="104" y="244"/>
      <point x="28" y="176"/>
      <point x="28" y="93" type="curve" smooth="yes"/>
      <point x="28" y="29"/>
      <point x="76" y="-22"/>
      <point x="143" y="-22" type="curve" smooth="yes"/>
      <point x="223" y="-22"/>
      <point x="298" y="46"/>
      <point x="298" y="130" type="curve" smooth="yes"/>
      <point x="298" y="193"/>
      <point x="250" y="244"/>
      <point x="183" y="244" type="curve" smooth="yes"/>
    </contour>
    <contour>
      <point x="504" y="244"/>
      <point x="428" y="176"/>
      <point x="428" y="93" type="curve" smooth="yes"/>
      <point x="428" y="29"/>
      <point x="476" y="-22"/>
      <point x="543" y="-22" type="curve" smooth="yes"/>
      <point x="623" y="-22"/>
      <point x="698" y="46"/>
      <point x="698" y="130" type="curve" smooth="yes"/>
      <point x="698" y="193"/>
      <point x="650" y="244"/>
      <point x="583" y="244" type="curve" smooth="yes"/>
    </contour>
  </outline>
</glyph>
<glyph name="lessequal" format="1">
  <advance width="1228"/>
  <unicode hex="2264"/>
  <outline>
    <contour>
      <point x="299" y="830" type="line" smooth="yes"/>
      <point x="263" y="817"/>
      <point x="240" y="795"/>
      <point x="233" y="755" type="curve" smooth="yes"/>
      <point x="226" y="715"/>
      <point x="241" y="693"/>
      <point x="272" y="680" type="curve" smooth="yes"/>
      <point x="969" y="386" type="line" smooth="yes"/>
      <point x="1008" y="370"/>
      <point x="1028" y="382"/>
      <point x="1049" y="431" type="curve" smooth="yes"/>
      <point x="1071" y="482"/>
      <point x="1060" y="502"/>
      <point x="1019" y="519" type="curve" smooth="yes"/>
      <point x="457" y="747" type="line"/>
      <point x="1121" y="983" type="line"/>
      <point x="1167" y="999"/>
      <point x="1185" y="1025"/>
      <point x="1167" y="1076" type="curve" smooth="yes"/>
      <point x="1150" y="1125"/>
      <point x="1127" y="1134"/>
      <point x="1082" y="1118" type="curve" smooth="yes"/>
    </contour>
    <contour>
      <point x="207" y="250" type="line" smooth="yes"/>
      <point x="162" y="250"/>
      <point x="140" y="232"/>
      <point x="132" y="182" type="curve" smooth="yes"/>
      <point x="123" y="132"/>
      <point x="138" y="114"/>
      <point x="183" y="114" type="curve" smooth="yes"/>
      <point x="945" y="114" type="line" smooth="yes"/>
      <point x="990" y="114"/>
      <point x="1011" y="132"/>
      <point x="1020" y="182" type="curve" smooth="yes"/>
      <point x="1028" y="232"/>
      <point x="1014" y="250"/>
      <point x="969" y="250" type="curve" smooth="yes"/>
    </contour>
  </outline>
</glyph>
<glyph name="ellipsis.alt4" format="1">
  <advance width="1228"/>
  <outline>
    <contour>
      <point x="904" y="244"/>
      <point x="828" y="176"/>
      <point x="828" y="93" type="curve" smooth="yes"/>
      <point x="828" y="29"/>
      <point x="876" y="-22"/>
      <point x="943" y="-22" type="curve" smooth="yes"/>
      <point x="1023" y="-22"/>
      <point x="1098" y="46"/>
      <point x="1098" y="130" type="curve" smooth="yes"/>
      <point x="1098" y="193"/>
      <point x="1050" y="244"/>
      <point x="983" y="244" type="curve" smooth="yes"/>
    </contour>
    <contour>
      <point x="-456" y="244"/>
      <point x="-532" y="176"/>
      <point x="-532" y="93" type="curve" smooth="yes"/>
      <point x="-532" y="29"/>
      <point x="-484" y="-22"/>
      <point x="-417" y="-22" type="curve" smooth="yes"/>
      <point x="-337" y="-22"/>
      <point x="-262" y="46"/>
      <point x="-262" y="130" type="curve" smooth="yes"/>
      <point x="-262" y="193"/>
      <point x="-310" y="244"/>
      <point x="-377" y="244" type="curve" smooth="yes"/>
    </contour>
    <contour>
      <point x="224" y="244"/>
      <point x="148" y="176"/>
      <point x="148" y="93" type="curve" smooth="yes"/>
      <point x="148" y="29"/>
      <point x="196" y="-22"/>
      <point x="263" y="-22" type="curve" smooth="yes"/>
      <point x="343" y="-22"/>
      <point x="418" y="46"/>
      <point x="418" y="130" type="curve" smooth="yes"/>
      <point x="418" y="193"/>
      <point x="370" y="244"/>
      <point x="303" y="244" type="curve" smooth="yes"/>
    </contour>
  </outline>
</glyph>
<glyph name="emdash.alt2" format="1">
  <advance width="1228"/>
  <outline>
    <contour>
      <point x="91" y="650" type="line" smooth="yes"/>
      <point x="46" y="650"/>
      <point x="25" y="632"/>
      <point x="16" y="582" type="curve" smooth="yes"/>
      <point x="7" y="532"/>
      <point x="22" y="514"/>
      <point x="67" y="514" type="curve" smooth="yes"/>
      <point x="2429" y="514" type="line" smooth="yes"/>
      <point x="2474" y="514"/>
      <point x="2495" y="532"/>
      <point x="2504" y="582" type="curve" smooth="yes"/>
      <point x="2513" y="632"/>
      <point x="2498" y="650"/>
      <point x="2453" y="650" type="curve" smooth="yes"/>
    </contour>
  </outline>
</glyph>
<glyph name="period.alt" format="1">
  <advance width="1228"/>
  <outline>
    <contour>
      <point x="795" y="316"/>
      <point x="698" y="230"/>
      <point x="698" y="124" type="curve" smooth="yes"/>
      <point x="698" y="43"/>
      <point x="759" y="-22"/>
      <point x="844" y="-22" type="curve" smooth="yes"/>
      <point x="946" y="-22"/>
      <point x="1040" y="65"/>
      <point x="1040" y="172" type="curve" smooth="yes"/>
      <point x="1040" y="251"/>
      <point x="980" y="316"/>
      <point x="895" y="316" type="curve" smooth="yes"/>
    </contour>
  </outline>
</glyph>
<glyph name="semicolon.alt" format="1">
  <advance width="1228"/>
  <outline>
    <contour>
      <point x="804" y="294" type="line" smooth="yes"/>
      <point x="776" y="294"/>
      <point x="755" y="280"/>
      <point x="745" y="254" type="curve" smooth="yes"/>
      <point x="561" y="-228" type="line" smooth="yes"/>
      <point x="545" y="-270"/>
      <point x="573" y="-294"/>
      <point x="612" y="-294" type="curve" smooth="yes"/>
      <point x="641" y="-294"/>
      <point x="667" y="-281"/>
      <point x="687" y="-253" type="curve" smooth="yes"/>
      <point x="1029" y="231" type="line" smooth="yes"/>
      <point x="1053" y="266"/>
      <point x="1045" y="294"/>
      <point x="1012" y="294" type="curve" smooth="yes"/>
    </contour>
    <contour>
      <point x="907" y="946"/>
      <point x="810" y="860"/>
      <point x="810" y="754" type="curve" smooth="yes"/>
      <point x="810" y="673"/>
      <point x="871" y="608"/>
      <point x="956" y="608" type="curve" smooth="yes"/>
      <point x="1058" y="608"/>
      <point x="1152" y="695"/>
      <point x="1152" y="802" type="curve" smooth="yes"/>
      <point x="1152" y="881"/>
      <point x="1092" y="946"/>
      <point x="1007" y="946" type="curve" smooth="yes"/>
    </contour>
  </outline>
</glyph>
